<svg width="14" height="14" viewBox="0 0 14 14" fill="none" xmlns="http://www.w3.org/2000/svg">
<path d="M10.3333 3.00001H13.6666V4.33334H12.3333V13C12.3333 13.1768 12.263 13.3464 12.138 13.4714C12.013 13.5964 11.8434 13.6667 11.6666 13.6667H2.33325C2.15644 13.6667 1.98687 13.5964 1.86185 13.4714C1.73682 13.3464 1.66659 13.1768 1.66659 13V4.33334H0.333252V3.00001H3.66659V1.00001C3.66659 0.823199 3.73682 0.65363 3.86185 0.528606C3.98687 0.403581 4.15644 0.333344 4.33325 0.333344H9.66659C9.8434 0.333344 10.013 0.403581 10.138 0.528606C10.263 0.65363 10.3333 0.823199 10.3333 1.00001V3.00001ZM10.9999 4.33334H2.99992V12.3333H10.9999V4.33334ZM4.99992 1.66668V3.00001H8.99992V1.66668H4.99992Z" fill="#262626"/>
</svg>
