<svg width="13" height="13" viewBox="0 0 13 13" fill="none" xmlns="http://www.w3.org/2000/svg">
<path d="M9.17133 0.999994L7.838 2.33333H1.33333V11.6667H10.6667V5.16199L12 3.82866V12.3333C12 12.5101 11.9298 12.6797 11.8047 12.8047C11.6797 12.9298 11.5101 13 11.3333 13H0.666667C0.489856 13 0.320286 12.9298 0.195262 12.8047C0.0702379 12.6797 0 12.5101 0 12.3333V1.66666C0 1.48985 0.0702379 1.32028 0.195262 1.19526C0.320286 1.07023 0.489856 0.999994 0.666667 0.999994H9.17133ZM11.6567 0.399994L12.6 1.34399L6.472 7.47199L5.53067 7.47399L5.52933 6.52933L11.6567 0.399994Z" fill="#262626"/>
</svg>
